<?xml version="1.0" encoding="UTF-8"?>
<svg width="30px" height="22px" viewBox="0 0 30 22" version="1.1" xmlns="http://www.w3.org/2000/svg" xmlns:xlink="http://www.w3.org/1999/xlink">
    <!-- Generator: Sketch 53.2 (72643) - https://sketchapp.com -->
    <title>song-svgrepo-com</title>
    <desc>Created with Sketch.</desc>
    <g id="video-editor" stroke="none" stroke-width="1" fill="none" fill-rule="evenodd">
        <g id="iPhone-8-Copy-2" transform="translate(-61.000000, -721.000000)" fill="#787878" fill-rule="nonzero">
            <g id="song-svgrepo-com" transform="translate(61.000000, 721.000000)">
                <path d="M12.0926829,0 L14.8585366,0 L14.8585366,0.906304348 C21.7780488,2.46065217 22.5682927,5.7176087 18.5560976,10.8517391 C18.9829268,5.75826087 18.4585366,4.66543478 14.8585366,4.42869565 L14.8585366,17.3082609 C14.8658537,17.3776087 14.8682927,17.4445652 14.8682927,17.513913 C14.8682927,19.1878261 13.0756098,20.8473913 10.8682927,21.2228261 C8.65853659,21.5982609 6.86829268,20.5436957 6.86829268,18.8697826 C6.86829268,16.586087 10.0682927,14.6036957 12.095122,15.3019565 L12.0926829,0 L12.0926829,0 L12.0926829,0 Z M17.6365854,21.9258696 L17.597561,21.9258696 C17.597561,21.6173913 17.4804878,21.3495652 17.2463415,21.1176087 C17.0121951,20.8880435 16.7365854,20.7732609 16.4219512,20.7732609 L16.4219512,20.735 C16.7365854,20.735 17.0097561,20.6202174 17.2463415,20.3906522 C17.4804878,20.1586957 17.597561,19.8908696 17.597561,19.5847826 L17.6365854,19.5847826 C17.6365854,19.8932609 17.7536585,20.161087 17.9878049,20.3906522 C18.2219512,20.6202174 18.497561,20.735 18.8121951,20.735 L18.8121951,20.7732609 C18.497561,20.7732609 18.2243902,20.8880435 17.9878049,21.1176087 C17.7536585,21.3471739 17.6365854,21.6173913 17.6365854,21.9258696 L17.6365854,21.9258696 L17.6365854,21.9258696 Z M22.5682927,17.8415217 L22.4707317,17.8343478 C22.5292683,17.0643478 22.2878049,16.3684783 21.7463415,15.7491304 C21.204878,15.1297826 20.5414634,14.7902174 19.7536585,14.7328261 L19.7609756,14.6371739 C20.5463415,14.6969565 21.2560976,14.4578261 21.8878049,13.9269565 C22.5195122,13.3936957 22.8658537,12.7432609 22.9243902,11.9756522 L23.0219512,11.9828261 C22.9634146,12.7528261 23.204878,13.4486957 23.7463415,14.0680435 C24.2878049,14.6873913 24.9512195,15.0269565 25.7390244,15.0843478 L25.7317073,15.18 C24.9463415,15.1202174 24.2365854,15.3593478 23.604878,15.8902174 C22.9731707,16.421087 22.6292683,17.0715217 22.5682927,17.8415217 L22.5682927,17.8415217 L22.5682927,17.8415217 Z M26.6658537,10.2515217 L26.5439024,10.2658696 C26.4170732,9.27826087 25.9317073,8.46043478 25.0829268,7.8123913 C24.2365854,7.16434783 23.3073171,6.90369565 22.297561,7.02565217 L22.2829268,6.90608696 C23.2902439,6.78413043 24.1243902,6.30586957 24.7853659,5.47369565 C25.4463415,4.64152174 25.7121951,3.73043478 25.5878049,2.74521739 L25.7097561,2.73086957 C25.8365854,3.71847826 26.3219512,4.53630435 27.1707317,5.18434783 C28.0195122,5.8323913 28.9463415,6.09304348 29.9560976,5.97108696 L29.9707317,6.09065217 C28.9634146,6.215 28.1292683,6.69086957 27.4682927,7.52304348 C26.8073171,8.35282609 26.5414634,9.26391304 26.6658537,10.2515217 L26.6658537,10.2515217 L26.6658537,10.2515217 Z M4.5,12.9202174 C3.93902439,12.9202174 3.48292683,12.4730435 3.48292683,11.9230435 C3.48292683,11.3730435 3.93902439,10.9258696 4.5,10.9258696 L8.55609756,10.9258696 C9.11707317,10.9258696 9.57317073,11.3730435 9.57317073,11.9230435 C9.57317073,12.4730435 9.11707317,12.9202174 8.55609756,12.9202174 L4.5,12.9202174 L4.5,12.9202174 L4.5,12.9202174 Z M2.57804878,8.08021739 C2.01707317,8.08021739 1.56097561,7.63304348 1.56097561,7.08304348 C1.56097561,6.53304348 2.01707317,6.08586957 2.57804878,6.08586957 L8.55853659,6.08586957 C9.1195122,6.08586957 9.57560976,6.53304348 9.57560976,7.08304348 C9.57560976,7.63304348 9.1195122,8.08021739 8.55853659,8.08021739 L0.895121951,8.08021739 L2.57804878,8.08021739 L2.57804878,8.08021739 Z M1.01707317,3.24021739 C0.456097561,3.24021739 0,2.79304348 0,2.24065217 C0,1.69065217 0.456097561,1.24347826 1.01707317,1.24347826 L8.55853659,1.24347826 C9.1195122,1.24347826 9.57560976,1.69065217 9.57560976,2.24065217 C9.57560976,2.79065217 9.1195122,3.23782609 8.55853659,3.23782609 L1.01707317,3.24021739 L1.01707317,3.24021739 L1.01707317,3.24021739 Z" id="Shape"></path>
            </g>
        </g>
    </g>
</svg>