<?xml version="1.0" encoding="UTF-8"?>
<svg width="576px" height="701px" viewBox="0 0 576 701" version="1.1" xmlns="http://www.w3.org/2000/svg" xmlns:xlink="http://www.w3.org/1999/xlink">
    <!-- Generator: Sketch 53.2 (72643) - https://sketchapp.com -->
    <title>export</title>
    <desc>Created with Sketch.</desc>
    <g id="Page-1" stroke="none" stroke-width="1" fill="none" fill-rule="evenodd">
        <g id="export" transform="translate(0.500000, -0.500000)" fill="#000000" fill-rule="nonzero">
            <path d="M109.730219,195.230094 C95.0880418,180.583251 115.09077,157.840134 129.736313,143.196656 L260.986313,11.9802187 C275.629732,-2.66209817 299.370237,-2.66209817 314.013656,11.9802187 L445.263656,143.196656 C459.910127,157.839753 470.912862,181.583639 456.269766,196.230109 C441.626669,210.87658 426.882783,190.879315 412.236312,176.236219 L315,69.0174375 L315,388.5 C315,409.210678 308.210678,426 287.5,426 C266.789322,426 260,409.210678 260,388.5 L260,69.0174375 L162.763656,176.236188 C148.116813,190.878364 124.373696,209.875636 109.730219,195.230094 Z M512.5,263.5 L437.5,263.5 C416.789322,263.500001 400.000001,270.289322 400.000001,291 C400.000001,311.710678 416.789322,318.499999 437.5,318.5 L520,318.5 L520,646 L55,646 L55,318.5 L137.5,318.5 C158.210678,318.499999 174.999999,311.710678 174.999999,291 C174.999999,270.289322 158.210678,263.500001 137.5,263.5 L62.5,263.5 C27.9983376,263.538921 0.0389209447,291.498338 0,326 L0,638.5 C0.0389209447,673.001662 27.9983376,700.961079 62.5,701 L512.5,701 C547.001662,700.961079 574.961079,673.001662 575,638.5 L575,326 C574.961079,291.498338 547.001662,263.538921 512.5,263.5 Z" id="Shape"></path>
        </g>
    </g>
</svg>