<?xml version="1.0" encoding="UTF-8"?>
<svg width="20px" height="13px" viewBox="0 0 20 13" version="1.1" xmlns="http://www.w3.org/2000/svg" xmlns:xlink="http://www.w3.org/1999/xlink">
    <!-- Generator: Sketch 53.2 (72643) - https://sketchapp.com -->
    <title>text-middle-svgrepo-com</title>
    <desc>Created with Sketch.</desc>
    <g id="video-editor" stroke="none" stroke-width="1" fill="none" fill-rule="evenodd">
        <g id="iPhone-8-Copy-2" transform="translate(-124.000000, -674.000000)" fill="#000000" fill-rule="nonzero">
            <g id="text-middle-svgrepo-com" transform="translate(124.000000, 674.000000)">
                <path d="M19.1666667,0.769230769 L0.833333333,0.769230769 C0.373096042,0.769230769 0,1.14806675 0,1.61538462 C0,2.08270248 0.373096042,2.46153846 0.833333333,2.46153846 L19.1666667,2.46153846 C19.626904,2.46153846 20,2.08270248 20,1.61538462 C20,1.14806675 19.626904,0.769230769 19.1666667,0.769230769 Z" id="Path"></path>
                <path d="M13.3333333,5.84615385 C13.7935706,5.84615385 14.1666667,5.46731787 14.1666667,5 C14.1666667,4.53268213 13.7935706,4.15384615 13.3333333,4.15384615 L6.66666667,4.15384615 C6.20642938,4.15384615 5.83333333,4.53268213 5.83333333,5 C5.83333333,5.46731787 6.20642938,5.84615385 6.66666667,5.84615385 L13.3333333,5.84615385 Z" id="Path"></path>
                <path d="M19.1666667,7.53846154 L0.833333333,7.53846154 C0.373096042,7.53846154 0,7.91729752 0,8.38461538 C0,8.85193325 0.373096042,9.23076923 0.833333333,9.23076923 L19.1666667,9.23076923 C19.626904,9.23076923 20,8.85193325 20,8.38461538 C20,7.91729752 19.626904,7.53846154 19.1666667,7.53846154 Z" id="Path"></path>
                <path d="M13.3333333,12.6153846 C13.7935706,12.6153846 14.1666667,12.2365486 14.1666667,11.7692308 C14.1666667,11.3019129 13.7935706,10.9230769 13.3333333,10.9230769 L6.66666667,10.9230769 C6.20642938,10.9230769 5.83333333,11.3019129 5.83333333,11.7692308 C5.83333333,12.2365486 6.20642938,12.6153846 6.66666667,12.6153846 L13.3333333,12.6153846 Z" id="Path"></path>
            </g>
        </g>
    </g>
</svg>