<?xml version="1.0" encoding="UTF-8"?>
<svg width="32px" height="30px" viewBox="0 0 32 30" version="1.1" xmlns="http://www.w3.org/2000/svg" xmlns:xlink="http://www.w3.org/1999/xlink">
    <!-- Generator: Sketch 53.2 (72643) - https://sketchapp.com -->
    <title>Shape</title>
    <desc>Created with Sketch.</desc>
    <g id="video-editor" stroke="none" stroke-width="1" fill="none" fill-rule="evenodd">
        <g id="iPhone-8-Copy-3" transform="translate(-244.000000, -606.000000)" fill="#000000" fill-rule="nonzero" stroke="#000000">
            <g id="color-filter" transform="translate(245.000000, 607.000000)">
                <path d="M23.4867358,10.4504068 C23.580297,9.92523635 23.6272737,9.39256861 23.6270984,8.85883616 C23.6270984,3.96627119 19.7298187,-1.59872116e-14 14.9223575,-1.59872116e-14 C10.1148964,-1.59872116e-14 6.21761658,3.96627119 6.21761658,8.85883616 C6.21761658,9.40222599 6.26588083,9.9340678 6.35797927,10.4504068 C2.69044041,11.4928927 1.98951966e-13,14.9180678 1.98951966e-13,18.9831299 C1.98951966e-13,23.8756949 3.89727979,27.8419661 8.70474093,27.8419661 C11.1406477,27.8419661 13.3423834,26.8232881 14.9223575,25.1822034 C16.5023316,26.8232881 18.7040674,27.8419661 21.1399741,27.8419661 C25.9474352,27.8419661 29.844715,23.8756949 29.844715,18.9831299 C29.844715,14.9180678 27.1542746,11.4929718 23.4867358,10.4504068 Z M7.4611399,8.85883616 C7.4611399,4.67188701 10.8081606,1.26553672 14.9223575,1.26553672 C19.0365544,1.26553672 22.3835751,4.67188701 22.3835751,8.85883616 C22.3835751,9.31569492 22.3437047,9.76329944 22.2673834,10.1981695 C21.8982902,10.1496045 21.5220466,10.1242938 21.1399741,10.1242938 C18.7040674,10.1242938 16.5023316,11.1429718 14.9223575,12.7840565 C13.3423834,11.1429718 11.1406477,10.1242938 8.70474093,10.1242938 C8.32266839,10.1242938 7.94642487,10.1495254 7.57733161,10.1981695 C7.49986233,9.75608639 7.46098016,9.30789439 7.4611399,8.85883616 Z M16.1659585,18.9831299 C16.1659585,20.5318305 15.7077202,21.973435 14.9223575,23.1756949 C14.1370725,21.973435 13.6787565,20.5318305 13.6787565,18.9831299 C13.6787565,18.5262712 13.7186269,18.0786667 13.7949482,17.6437966 C14.5434367,17.7423254 15.3012783,17.7423254 16.0497668,17.6437966 C16.1272361,18.0858797 16.1661183,18.5340717 16.1659585,18.9831299 L16.1659585,18.9831299 Z M14.9223575,16.4521356 C14.6545748,16.4520825 14.3869878,16.4374023 14.1207513,16.4081582 C14.3234184,15.838272 14.592544,15.2951926 14.9223575,14.790565 C15.2522015,15.2951746 15.5213291,15.8382577 15.7239637,16.4081582 C15.4577272,16.4374023 15.1901403,16.4520825 14.9223575,16.4521356 L14.9223575,16.4521356 Z M12.8853886,16.1644633 C10.5727461,15.4957062 8.71445596,13.7174689 7.90313472,11.4337288 C8.16660622,11.4049379 8.43396373,11.3897514 8.70474093,11.3897514 C10.8306218,11.3897514 12.7515544,12.2993559 14.1118912,13.7560678 C13.5836589,14.4898159 13.1699484,15.3021898 12.8853886,16.1644633 L12.8853886,16.1644633 Z M15.7328238,13.756226 C17.0931606,12.299435 19.0140933,11.3898305 21.1399741,11.3898305 C21.4107513,11.3898305 21.6781865,11.4049379 21.9415803,11.4338079 C21.1302591,13.717548 19.2718912,15.4957062 16.9593264,16.1645424 C16.6748156,15.3022723 16.261101,14.489917 15.7328238,13.756226 L15.7328238,13.756226 Z M8.70474093,26.5764294 C4.59054404,26.5764294 1.24352332,23.1701582 1.24352332,18.9831299 C1.24352332,15.5146102 3.54054404,12.5818079 6.66777202,11.6775028 C7.57958549,14.4445198 9.79717617,16.6017853 12.5755959,17.3916384 C12.4820346,17.9167822 12.435058,18.4494237 12.4352332,18.9831299 C12.4352332,20.9381469 13.0580052,22.7448588 14.1118912,24.210113 C12.7515544,25.6668249 10.8306218,26.5764294 8.70474093,26.5764294 L8.70474093,26.5764294 Z M21.1399741,26.5764294 C19.0140155,26.5764294 17.0931606,25.6668249 15.7328238,24.2100339 C16.7867876,22.7448588 17.4094819,20.9381469 17.4094819,18.9831299 C17.4094819,18.4398192 17.3612176,17.9078983 17.2691192,17.3916384 C20.0475389,16.6017853 22.2650518,14.4445198 23.176943,11.6775028 C26.304171,12.581887 28.6011917,15.5146893 28.6011917,18.9831299 C28.6011917,23.1701582 25.254171,26.5764294 21.1399741,26.5764294 Z" id="Shape"></path>
            </g>
        </g>
    </g>
</svg>