<?xml version="1.0" encoding="UTF-8"?>
<svg width="21px" height="25px" viewBox="0 0 21 25" version="1.1" xmlns="http://www.w3.org/2000/svg" xmlns:xlink="http://www.w3.org/1999/xlink">
    <!-- Generator: Sketch 53.2 (72643) - https://sketchapp.com -->
    <title>delete1 copy</title>
    <desc>Created with Sketch.</desc>
    <g id="Page-1" stroke="none" stroke-width="1" fill="none" fill-rule="evenodd">
        <g id="icons" transform="translate(-658.000000, -104.000000)" fill="#000000" fill-rule="nonzero">
            <g id="delete1-copy" transform="translate(658.000000, 104.000000)">
                <path d="M20.4040527,5.58795928 L19.852066,3.93333437 C19.6418762,3.30314639 19.0542221,2.87971494 18.3900833,2.87971494 L13.7508393,2.87971494 L13.7508393,1.3692856 C13.7508393,0.614356982 13.1370544,0 12.3823166,0 L8.13388823,0 C7.37934111,0 6.76536563,0.614356982 6.76536563,1.3692856 L6.76536563,2.87971494 L2.12631226,2.87971494 C1.46198271,2.87971494 0.874328613,3.30314639 0.66413877,3.93333437 L0.1121521,5.58795928 C-0.0135421875,5.96466064 0.0501632715,6.3817978 0.282287598,6.70394897 C0.514411914,7.02610015 0.889968848,7.21855166 1.28707886,7.21855166 L1.86405181,7.21855166 L3.13396455,22.9219437 C3.22837832,24.087143 4.21714785,25 5.38539888,25 L15.3884888,25 C16.5565491,25 17.5455093,24.087143 17.6397324,22.9217529 L18.9096451,7.21855166 L19.229126,7.21855166 C19.6262359,7.21855166 20.0017929,7.02610015 20.2339172,6.7041397 C20.4660416,6.38198853 20.529747,5.96466064 20.4040527,5.58795928 L20.4040527,5.58795928 Z M8.23020937,1.46484375 L12.2859955,1.46484375 L12.2859955,2.87971494 L8.23020937,2.87971494 L8.23020937,1.46484375 Z M16.179657,22.803688 C16.1464691,23.2139587 15.7989502,23.5351562 15.3884888,23.5351562 L5.38539888,23.5351562 C4.97493745,23.5351562 4.62741851,23.2139587 4.59423066,22.803688 L3.33366396,7.21855166 L17.440033,7.21855166 L16.179657,22.803688 Z M1.60121919,5.75370791 L2.05383301,4.39682007 C2.06413271,4.36553955 2.09331514,4.34455869 2.12631226,4.34455869 L18.3900833,4.34455869 C18.4230805,4.34455869 18.4520722,4.36553955 18.4625625,4.39682007 L18.9151764,5.75370791 L1.60121919,5.75370791 Z" id="Shape"></path>
                <path d="M13.8435364,22.7518082 C13.8565063,22.7525711 13.8692856,22.7527618 13.8822556,22.7527618 C14.2692566,22.7527618 14.5927429,22.4494934 14.6129608,22.0584869 L15.3007507,8.85543823 C15.3217315,8.45146182 15.0112152,8.10680391 14.6074295,8.08582305 C14.2024994,8.06427002 13.8589859,8.37516787 13.8378144,8.77914429 L13.1502151,21.982193 C13.1292343,22.3861694 13.43956,22.7308273 13.8435364,22.7518082 Z" id="Path"></path>
                <path d="M5.93585967,22.0602036 C5.95722197,22.4506378 6.28032686,22.7527618 6.66656494,22.7527618 C6.67991641,22.7527618 6.69364932,22.7523804 6.70719146,22.7516174 C7.11097715,22.7296829 7.42053984,22.3844528 7.39860537,21.9804764 L6.67819976,8.77742769 C6.65626523,8.37345122 6.31103516,8.06388857 5.90705869,8.08601377 C5.503273,8.10794829 5.19371035,8.45317842 5.21564482,8.85715483 L5.93585967,22.0602036 Z" id="Path"></path>
                <path d="M10.266304,22.7527618 C10.6708526,22.7527618 10.9987259,22.4248886 10.9987259,22.0203399 L10.9987259,8.81729126 C10.9987259,8.41274263 10.6708526,8.08486938 10.266304,8.08486938 C9.86175537,8.08486938 9.53388213,8.41274263 9.53388213,8.81729126 L9.53388213,22.0203399 C9.53388213,22.4248886 9.86175537,22.7527618 10.266304,22.7527618 Z" id="Path"></path>
            </g>
        </g>
    </g>
</svg>