<?xml version="1.0" encoding="UTF-8"?>
<svg width="19px" height="20px" viewBox="0 0 19 20" version="1.1" xmlns="http://www.w3.org/2000/svg" xmlns:xlink="http://www.w3.org/1999/xlink">
    <!-- Generator: Sketch 53.2 (72643) - https://sketchapp.com -->
    <title>movies</title>
    <desc>Created with Sketch.</desc>
    <g id="Page-1" stroke="none" stroke-width="1" fill="none" fill-rule="evenodd">
        <g id="icons" transform="translate(-64.000000, -760.000000)" fill="#000000" fill-rule="nonzero">
            <path d="M75.4,763.809524 C75.4,762.761905 74.545,761.904762 73.5,761.904762 L72.55,761.904762 L72.55,760.952381 C72.55,760.428571 72.1225,760 71.6,760 L67.8,760 C67.2775,760 66.85,760.428571 66.85,760.952381 L66.85,761.904762 L65.9,761.904762 C64.855,761.904762 64,762.761905 64,763.809524 L64,778.095238 C64,779.142857 64.855,780 65.9,780 L73.5,780 C74.545,780 75.4,779.142857 75.4,778.095238 L82.047619,778.095238 C82.5736045,778.095238 83,777.668843 83,777.142857 L83,764.761905 C83,764.235919 82.5736045,763.809524 82.047619,763.809524 L75.4,763.809524 Z M73.2142857,776.190476 L71.8857143,776.190476 C71.7279186,776.190476 71.6,776.062558 71.6,775.904762 L71.6,774.571429 C71.6,774.413633 71.7279186,774.285714 71.8857143,774.285714 L73.2142857,774.285714 C73.3720814,774.285714 73.5,774.413633 73.5,774.571429 L73.5,775.904762 C73.5,776.062558 73.3720814,776.190476 73.2142857,776.190476 Z M73.2142857,767.619048 L71.8857143,767.619048 C71.7279186,767.619048 71.6,767.491129 71.6,767.333333 L71.6,766 C71.6,765.842204 71.7279186,765.714286 71.8857143,765.714286 L73.2142857,765.714286 C73.3720814,765.714286 73.5,765.842204 73.5,766 L73.5,767.333333 C73.5,767.491129 73.3720814,767.619048 73.2142857,767.619048 Z M77.0142857,776.190476 L75.6857143,776.190476 C75.5279186,776.190476 75.4,776.062558 75.4,775.904762 L75.4,774.571429 C75.4,774.413633 75.5279186,774.285714 75.6857143,774.285714 L77.0142857,774.285714 C77.1720814,774.285714 77.3,774.413633 77.3,774.571429 L77.3,775.904762 C77.3,776.062558 77.1720814,776.190476 77.0142857,776.190476 Z M77.0142857,767.619048 L75.6857143,767.619048 C75.5279186,767.619048 75.4,767.491129 75.4,767.333333 L75.4,766 C75.4,765.842204 75.5279186,765.714286 75.6857143,765.714286 L77.0142857,765.714286 C77.1720814,765.714286 77.3,765.842204 77.3,766 L77.3,767.333333 C77.3,767.491129 77.1720814,767.619048 77.0142857,767.619048 Z M80.8142857,776.190476 L79.4857143,776.190476 C79.3279186,776.190476 79.2,776.062558 79.2,775.904762 L79.2,774.571429 C79.2,774.413633 79.3279186,774.285714 79.4857143,774.285714 L80.8142857,774.285714 C80.9720814,774.285714 81.1,774.413633 81.1,774.571429 L81.1,775.904762 C81.1,776.062558 80.9720814,776.190476 80.8142857,776.190476 Z M80.8142857,767.619048 L79.4857143,767.619048 C79.3279186,767.619048 79.2,767.491129 79.2,767.333333 L79.2,766 C79.2,765.842204 79.3279186,765.714286 79.4857143,765.714286 L80.8142857,765.714286 C80.9720814,765.714286 81.1,765.842204 81.1,766 L81.1,767.333333 C81.1,767.491129 80.9720814,767.619048 80.8142857,767.619048 Z" id="movies"></path>
        </g>
    </g>
</svg>