<?xml version="1.0" encoding="UTF-8"?>
<svg width="22px" height="22px" viewBox="0 0 22 22" version="1.1" xmlns="http://www.w3.org/2000/svg" xmlns:xlink="http://www.w3.org/1999/xlink">
    <!-- Generator: Sketch 53.2 (72643) - https://sketchapp.com -->
    <title>image-plus-svgrepo-com</title>
    <desc>Created with Sketch.</desc>
    <g id="video-editor" stroke="none" stroke-width="1" fill="none" fill-rule="evenodd" stroke-linecap="round" stroke-linejoin="round">
        <g id="iPhone-8-Copy-2" transform="translate(-65.000000, -658.000000)" stroke="#787878" stroke-width="1.71428571">
            <g id="image-plus-svgrepo-com" transform="translate(66.000000, 659.000000)">
                <path d="M12.0761176,15.2208235 L10.0556471,13.2171765 C9.12705882,12.2963529 8.66270588,11.8358824 8.12811765,11.6631765 C7.65788235,11.5111765 7.15176471,11.5111765 6.68143529,11.6631765 C6.14688235,11.8358824 5.68255294,12.2963529 4.75390588,13.2171765 L0.0493294118,17.9555294 M12.0761176,15.2208235 L12.4776471,14.8224706 C13.4258824,13.8822353 13.8998824,13.4121176 14.4438824,13.2405882 C14.9222353,13.0896471 15.4362353,13.0955294 15.9110588,13.2574118 C16.4508235,13.4415294 16.914,13.9223529 17.8402353,14.8841176 L18.8235294,15.8824706 M12.0761176,15.2208235 L16.7294118,19.9562353 M16.7294118,19.9562353 C16.318,20 15.7897647,20 15.0588235,20 L3.76470588,20 C2.44692941,20 1.78804706,20 1.28472941,19.7435294 C0.842,19.518 0.482035294,19.158 0.256458824,18.7152941 C0.148035294,18.5024706 0.0854588235,18.2618824 0.0493294118,17.9555294 M16.7294118,19.9562353 C17.0596471,19.9210588 17.3147059,19.8577647 17.5388235,19.7435294 C17.9815294,19.518 18.3415294,19.158 18.5670588,18.7152941 C18.8235294,18.212 18.8235294,17.5530588 18.8235294,16.2352941 L18.8235294,11.7647059 M8.23529412,1.17647059 L3.76470588,1.17647059 C2.44692941,1.17647059 1.78804706,1.17647059 1.28472941,1.43292941 C0.842,1.65850588 0.482035294,2.01845882 0.256458824,2.4612 C0,2.96451765 0,3.62341176 0,4.94117647 L0,16.2352941 C0,16.996 0,17.5371765 0.0493294118,17.9555294 M16.4705882,7.05882353 L16.4705882,3.52941176 M16.4705882,3.52941176 L16.4705882,0 M16.4705882,3.52941176 L20,3.52941176 M16.4705882,3.52941176 L12.9411765,3.52941176" id="Shape"></path>
            </g>
        </g>
    </g>
</svg>