<?xml version="1.0" encoding="UTF-8"?>
<svg width="37px" height="32px" viewBox="0 0 37 32" version="1.1" xmlns="http://www.w3.org/2000/svg" xmlns:xlink="http://www.w3.org/1999/xlink">
    <!-- Generator: Sketch 53.2 (72643) - https://sketchapp.com -->
    <title>text-field-focus-svgrepo-com-2</title>
    <desc>Created with Sketch.</desc>
    <g id="video-editor" stroke="none" stroke-width="1" fill="none" fill-rule="evenodd">
        <g id="iPhone-8-Copy-2" transform="translate(-60.000000, -768.000000)">
            <g id="text-field-focus-svgrepo-com-2" transform="translate(61.000000, 769.000000)">
                <path d="M9.375,20.25 C9.375,20.8713 9.878685,21.375 10.5,21.375 C11.121315,21.375 11.625,20.8713 11.625,20.25 L9.375,20.25 Z M14.49645,10.128735 L15.2436,9.28779 L15.2436,9.28779 L14.49645,10.128735 Z M13.875,12.6375 C13.875,13.2588 14.3787,13.7625 15,13.7625 C15.6213,13.7625 16.125,13.2588 16.125,12.6375 L13.875,12.6375 Z M14.62125,10.253625 L15.46215,9.50634 L15.46215,9.50634 L14.62125,10.253625 Z M6.503625,10.128735 L5.75634,9.28779 L5.75634,9.28779 L6.503625,10.128735 Z M4.875,12.6375 C4.875,13.2588 5.378685,13.7625 6,13.7625 C6.621315,13.7625 7.125,13.2588 7.125,12.6375 L4.875,12.6375 Z M6.378735,10.253625 L5.53779,9.50634 L5.53779,9.50634 L6.378735,10.253625 Z M7.5,19.125 C6.878685,19.125 6.375,19.6287 6.375,20.25 C6.375,20.8713 6.878685,21.375 7.5,21.375 L7.5,19.125 Z M13.5,21.375 C14.1213,21.375 14.625,20.8713 14.625,20.25 C14.625,19.6287 14.1213,19.125 13.5,19.125 L13.5,21.375 Z M8.8875,10.875 L10.5,10.875 L10.5,8.625 L8.8875,8.625 L8.8875,10.875 Z M10.5,10.875 L12.1125,10.875 L12.1125,8.625 L10.5,8.625 L10.5,10.875 Z M11.625,20.25 L11.625,9.75 L9.375,9.75 L9.375,20.25 L11.625,20.25 Z M12.1125,10.875 C12.79425,10.875 13.20105,10.877055 13.49475,10.913685 C13.76085,10.94688 13.77465,10.99245 13.74915,10.96968 L15.2436,9.28779 C14.7918,8.886285 14.26635,8.74248 13.7733,8.680995 C13.30785,8.622945 12.73575,8.625 12.1125,8.62499102 L12.1125,10.875 Z M16.1250096,12.6375 C16.125,12.01425 16.1271,11.44209 16.06905,10.97673 C16.00755,10.483725 15.8637,9.95817 15.46215,9.50634 L13.78035,11.00091 C13.75755,10.97529 13.80315,10.98912 13.8363,11.25522 C13.8729,11.548965 13.875,11.955705 13.875,12.6375 L16.1250096,12.6375 Z M13.74915,10.96968 C13.7601,10.97946 13.7706,10.989885 13.78035,11.00091 L15.46215,9.50634 C15.39375,9.429255 15.3207,9.35628 15.2436,9.28779 L13.74915,10.96968 Z M8.8875,8.62499102 C8.26419,8.625 7.69209,8.622945 7.22673,8.680995 C6.73371,8.74248 6.20817,8.886285 5.75634,9.28779 L7.25091,10.96968 C7.22529,10.99245 7.23912,10.94688 7.50522,10.913685 C7.798965,10.877055 8.205705,10.875 8.8875,10.875 L8.8875,8.62499102 Z M7.125,12.6375 C7.125,11.955705 7.127055,11.548965 7.163685,11.25522 C7.19688,10.98912 7.24245,10.97529 7.21968,11.00091 L5.53779,9.50634 C5.136285,9.95817 4.99248,10.483725 4.930995,10.97673 C4.872945,11.44209 4.875,12.01425 4.87499102,12.6375 L7.125,12.6375 Z M5.75634,9.28779 C5.679255,9.35628 5.60628,9.429255 5.53779,9.50634 L7.21968,11.00091 C7.229475,10.9899 7.2399,10.979475 7.25091,10.96968 L5.75634,9.28779 Z M7.5,21.375 L13.5,21.375 L13.5,19.125 L7.5,19.125 L7.5,21.375 Z" id="Shape" fill="#000000" fill-rule="nonzero"></path>
                <path d="M35,15 C35,20.6568 35,23.48535 33.2426,25.2426 C31.64795,26.83725 29.17145,26.985 24.5,26.99865 M15,3 L12,3 C6.34314,3 3.514725,3 1.757355,4.757355 C0,6.514725 0,9.34314 0,15 C0,20.6568 0,23.48535 1.757355,25.2426 C3.514725,27 6.34314,27 12,27 L15,27 M24.5,3.001395 C29.17145,3.01506 31.64795,3.16272 33.2426,4.757355 C34.2224,5.737125 34.6559,7.049835 34.84775,9" id="Shape" stroke="#000000" stroke-width="2" stroke-linecap="round"></path>
                <path d="M19.5,0 L19.5,30" id="Path" stroke="#000000" stroke-width="2" stroke-linecap="round"></path>
            </g>
        </g>
    </g>
</svg>